<svg width="248" height="183" viewBox="0 0 248 183" fill="none" xmlns="http://www.w3.org/2000/svg">
<ellipse cx="138.139" cy="91.0722" rx="97.9535" ry="75.3488" transform="rotate(9.90297 138.139 91.0722)" fill="#A2C5E1"/>
<path d="M168.279 68.4668L188.372 78.5133" stroke="#2F3C76" stroke-linecap="round"/>
<path d="M80.3718 50.8857H105.488" stroke="#2F3C76" stroke-linecap="round"/>
<path d="M170.791 86.0469L175.814 91.0701" stroke="#2F3C76" stroke-linecap="round"/>
<path d="M89.8668 72.1436L95.5961 71.7137" stroke="#2F3C76" stroke-linecap="round"/>
<path d="M118.047 111.164C119.721 110.327 124.577 109.657 130.605 113.676C136.633 117.695 138.14 120.374 138.14 121.211" stroke="#2F3C76" stroke-linecap="round"/>
<rect x="195.907" y="125.655" width="28.5367" height="60.2791" rx="14.2684" transform="rotate(-19.376 195.907 125.655)" fill="#A2C5E1"/>
<rect x="12.9352" y="123.739" width="28.5367" height="60.2791" rx="14.2684" transform="rotate(-116.955 12.9352 123.739)" fill="#A2C5E1"/>
<path d="M203.441 73.4888L210.976 33.3027L231.069 68.4655C233.581 73.4888 233.581 91.0702 221.023 91.0702C206.958 91.0702 202.604 77.6748 203.441 73.4888Z" fill="#00A1F1" stroke="#00A1F1" stroke-linecap="round"/>
</svg>
