<svg width="125" height="132" viewBox="0 0 125 132" fill="none" xmlns="http://www.w3.org/2000/svg">
<path d="M62.7172 23.3939L81.7188 1.0572C83.2429 -0.734424 86.1421 -0.154954 86.8605 2.08486L95.7524 29.8096C96.1506 31.0512 97.3052 31.8934 98.6091 31.8934H118.102C120.772 31.8934 122.112 35.1188 120.228 37.0104L107.318 49.9734C106.175 51.1203 106.149 52.9667 107.258 54.1458L123.273 71.1725C124.407 72.3774 124.351 74.2722 123.149 75.4084L106.64 91.0095C105.802 91.8016 105.492 93.0042 105.843 94.1028L113.231 117.231C114.024 119.713 111.494 121.956 109.125 120.872L71.3957 103.609C69.9006 102.925 68.1335 103.571 67.4332 105.059L55.7605 129.852C54.7375 132.025 51.703 132.175 50.471 130.113L34.7685 103.835C34.227 102.929 33.249 102.374 32.1933 102.374H13.0737C10.9218 102.374 9.46976 100.176 10.3145 98.1964L20.0782 75.3211C20.581 74.1433 20.2806 72.7763 19.3305 71.9176L0.989593 55.3433C-0.68037 53.8342 -0.15541 51.0919 1.95384 50.3062L31.9426 39.1358C33.1167 38.6985 33.8954 37.5775 33.8954 36.3245V13.652C33.8954 11.288 36.5025 9.85277 38.5 11.1172L58.8276 23.9849C60.0904 24.7842 61.7489 24.5322 62.7172 23.3939Z" fill="white"/>
</svg>
