<svg width="163" height="171" viewBox="0 0 163 171" fill="none" xmlns="http://www.w3.org/2000/svg">
<path d="M79.8508 0C79.8508 0 104.782 10.2991 119.731 19C134.294 27.4754 154.194 42.75 154.194 42.75C154.194 42.75 163.327 69.7122 162.991 87.5357C162.685 103.802 154.194 128.25 154.194 128.25C154.194 128.25 140.042 144.014 126.491 152.679C110.613 162.83 79.8508 171 79.8508 171C79.8508 171 51.7435 162.055 37.2665 154.036C21.7214 145.425 5.50732 128.25 5.50732 128.25C5.50732 128.25 -0.809987 101.004 0.0872689 82.1071C0.812813 66.8268 5.50732 42.75 5.50732 42.75C5.50732 42.75 24.2998 27.526 39.2968 19C53.8976 10.6993 79.8508 0 79.8508 0Z" fill="white"/>
</svg>
