<svg width="210" height="96" viewBox="0 0 210 96" fill="none" xmlns="http://www.w3.org/2000/svg">
<path d="M72.2439 26.5156L44.553 9.50619C39.8437 7.23828 33.2298 4.40335 23.0784 6.10429C15.0977 7.44152 -6.90598 32.3294 2.14736 62.8022C11.7488 95.1201 52.4647 97.955 72.2439 84.9145C92.0231 71.8739 105.021 61.1013 131.581 62.8022C158.142 64.5032 155.851 86.2808 174.503 93.9862C184.11 97.955 207.308 98.522 209.568 71.8739C211.829 45.2259 206.15 19.9043 170.01 2.70252C147.377 -8.07001 112.34 16.31 101.037 24.2477C91.9954 30.5979 77.7067 29.1615 72.2439 26.5156Z" fill="white"/>
</svg>
